name E:\Dropbox\SEL\BOX\Experiment\240124_SUB1_PJH\c3d\XYZ\UpDown_TrcMot\15_10_trial1_U1_ExtLoadAPP1.mot
datacolumns 37
datarows 14
range 2.832 2.845
endheader

time	    ground_force1_vx	    ground_force1_vy	    ground_force1_vz	    ground_force1_px	    ground_force1_py	    ground_force1_pz	    ground_torque1_x	    ground_torque1_y	    ground_torque1_z	    ground_force2_vx	    ground_force2_vy	    ground_force2_vz	    ground_force2_px	    ground_force2_py	    ground_force2_pz	    ground_torque2_x	    ground_torque2_y	    ground_torque2_z	      hand_force3_vx	      hand_force3_vy	      hand_force3_vz	      hand_force3_px	      hand_force3_py	      hand_force3_pz	      hand_torque3_x	      hand_torque3_y	      hand_torque3_z	      hand_force4_vx	      hand_force4_vy	      hand_force4_vz	      hand_force4_px	      hand_force4_py	      hand_force4_pz	      hand_torque4_x	      hand_torque4_y	      hand_torque4_z	
2.832	         43.79742955	        519.91009940	          9.07113799	          0.21931121	          0.00000000	          0.18820326	          0.00000000	         -2.52408617	          0.00000000	        -38.51143785	        505.64954203	          5.85555183	          0.58214867	          0.00000000	          0.18921132	          0.00000000	          0.22259075	          0.00000000	        -15.45199375	        -97.91238044	          0.28713527	          0.20164996	          0.49903388	         -0.01401998	         -0.00005701	         -0.01023174	          0.00075543	         14.21491529	        -97.54927673	         -2.10804371	          0.59741517	          0.49903388	         -0.01261023	          0.00079831	          0.18800516	         -0.01159180	
2.833	         43.69448169	        519.44802561	          8.89856412	          0.21931310	          0.00000000	          0.18811065	          0.00000000	         -2.51855185	          0.00000000	        -38.50216401	        505.53302705	          5.82748407	          0.58213823	          0.00000000	          0.18915823	          0.00000000	          0.22168807	          0.00000000	        -15.41777649	        -97.89474255	          0.32741789	          0.20165289	          0.49978927	         -0.01380593	         -0.00005789	         -0.01009957	          0.00074402	         14.17862938	        -97.53175634	         -2.04475760	          0.59743620	          0.49978927	         -0.01236195	          0.00081011	          0.18861306	         -0.01163630	
2.834	         43.59252101	        518.98345575	          8.72588531	          0.21931462	          0.00000000	          0.18801824	          0.00000000	         -2.51307081	          0.00000000	        -38.49397486	        505.41099069	          5.79798874	          0.58212824	          0.00000000	          0.18910504	          0.00000000	          0.22089420	          0.00000000	        -15.38450878	        -97.87612515	          0.36715546	          0.20165570	          0.50054769	         -0.01359026	         -0.00005881	         -0.00999378	          0.00073392	         14.14375082	        -97.51560428	         -1.98087142	          0.59745889	          0.50054769	         -0.01211096	          0.00082190	          0.18922321	         -0.01168036	
2.835	         43.49166863	        518.51669942	          8.55315109	          0.21931578	          0.00000000	          0.18792614	          0.00000000	         -2.50763798	          0.00000000	        -38.48683336	        505.28345141	          5.76716389	          0.58211870	          0.00000000	          0.18905174	          0.00000000	          0.22021419	          0.00000000	        -15.35215839	        -97.85648944	          0.40637653	          0.20165843	          0.50130914	         -0.01337296	         -0.00005977	         -0.00991110	          0.00072496	         14.11023851	        -97.50080563	         -1.91640202	          0.59748317	          0.50130914	         -0.01185729	          0.00083368	          0.18983381	         -0.01172390	
2.836	         43.39204197	        518.04806418	          8.38041137	          0.21931657	          0.00000000	          0.18783441	          0.00000000	         -2.50224883	          0.00000000	        -38.48070150	        505.15043547	          5.73510701	          0.58210963	          0.00000000	          0.18899831	          0.00000000	          0.21965327	          0.00000000	        -15.32069229	        -97.83580041	          0.44511035	          0.20166110	          0.50207360	         -0.01315402	         -0.00006075	         -0.00984819	          0.00071698	         14.07804818	        -97.48734228	         -1.85136766	          0.59750897	          0.50207360	         -0.01160102	          0.00084541	          0.19044291	         -0.01176684	
2.837	         43.29375432	        517.57785466	          8.20771642	          0.21931700	          0.00000000	          0.18774315	          0.00000000	         -2.49689937	          0.00000000	        -38.47554051	        505.01197664	          5.70191480	          0.58210101	          0.00000000	          0.18894476	          0.00000000	          0.21921676	          0.00000000	        -15.29007678	        -97.81402682	          0.48338675	          0.20166376	          0.50284108	         -0.01293345	         -0.00006172	         -0.00980169	          0.00070982	         14.04713252	        -97.47519298	         -1.78578800	          0.59753621	          0.50284108	         -0.01134219	          0.00085707	          0.19104848	         -0.01180910	
2.838	         43.19691443	        517.10637167	          8.03511675	          0.21931707	          0.00000000	          0.18765243	          0.00000000	         -2.49158621	          0.00000000	        -38.47131110	        504.86811591	          5.66768285	          0.58209286	          0.00000000	          0.18889107	          0.00000000	          0.21891009	          0.00000000	        -15.26027749	        -97.79114129	          0.52123595	          0.20166643	          0.50361155	         -0.01271124	         -0.00006267	         -0.00976825	          0.00070330	         14.01744128	        -97.46433330	         -1.71968404	          0.59756480	          0.50361155	         -0.01108088	          0.00086864	          0.19164835	         -0.01185059	
2.839	         43.10162613	        516.63391131	          7.86266307	          0.21931678	          0.00000000	          0.18756235	          0.00000000	         -2.48630652	          0.00000000	        -38.46797370	        504.71890113	          5.63250544	          0.58208518	          0.00000000	          0.18883726	          0.00000000	          0.21873875	          0.00000000	        -15.23125953	        -97.76712029	          0.55868836	          0.20166914	          0.50438501	         -0.01248740	         -0.00006357	         -0.00974447	          0.00069724	         13.98892141	        -97.45473570	         -1.65307810	          0.59759467	          0.50438501	         -0.01081716	          0.00088009	          0.19224024	         -0.01189119	
2.84	         43.00798797	        516.16076409	          7.69040615	          0.21931614	          0.00000000	          0.18747298	          0.00000000	         -2.48105812	          0.00000000	        -38.46548864	        504.56438660	          5.59647532	          0.58207798	          0.00000000	          0.18878333	          0.00000000	          0.21870824	          0.00000000	        -15.20298746	        -97.74194409	          0.59577447	          0.20167193	          0.50516145	         -0.01226192	         -0.00006442	         -0.00972700	          0.00069148	         13.96151721	        -97.44636957	         -1.58599378	          0.59762573	          0.50516145	         -0.01055109	          0.00089140	          0.19282179	         -0.01193081	
2.841	         42.91609284	        515.68721410	          7.51839679	          0.21931514	          0.00000000	          0.18738442	          0.00000000	         -2.47583944	          0.00000000	        -38.46381642	        504.40463266	          5.55968349	          0.58207125	          0.00000000	          0.18872927	          0.00000000	          0.21882407	          0.00000000	        -15.17542539	        -97.71559678	          0.63252465	          0.20167481	          0.50594086	         -0.01203483	         -0.00006519	         -0.00971249	          0.00068583	         13.93517046	        -97.43920130	         -1.51845592	          0.59765787	          0.50594086	         -0.01028275	          0.00090254	          0.19339053	         -0.01196934	
2.842	         42.82602768	        515.21353807	          7.34668570	          0.21931380	          0.00000000	          0.18729674	          0.00000000	         -2.47064954	          0.00000000	        -38.46291783	        504.23970527	          5.52221901	          0.58206499	          0.00000000	          0.18867511	          0.00000000	          0.21909169	          0.00000000	        -15.14853702	        -97.68806623	          0.66896899	          0.20167782	          0.50672324	         -0.01180612	         -0.00006587	         -0.00969762	          0.00068013	         13.90982057	        -97.43319435	         -1.45049052	          0.59769102	          0.50672324	         -0.01001223	          0.00091349	          0.19394391	         -0.01200664	
2.843	         42.73787319	        514.74000459	          7.17532341	          0.21931211	          0.00000000	          0.18721003	          0.00000000	         -2.46548816	          0.00000000	        -38.46275421	        504.06967544	          5.48416880	          0.58205921	          0.00000000	          0.18862085	          0.00000000	          0.21951649	          0.00000000	        -15.12228564	        -97.65934403	          0.70513723	          0.20168097	          0.50750857	         -0.01157580	         -0.00006644	         -0.00967913	          0.00067420	         13.88540476	        -97.42830933	         -1.38212466	          0.59772508	          0.50750857	         -0.00973961	          0.00092423	          0.19447931	         -0.01204259	
2.844	         42.65170351	        514.26687321	          7.00436017	          0.21931009	          0.00000000	          0.18712437	          0.00000000	         -2.46035563	          0.00000000	        -38.46328753	        503.89461880	          5.44561753	          0.58205391	          0.00000000	          0.18856651	          0.00000000	          0.22010375	          0.00000000	        -15.09663421	        -97.62942541	          0.74105853	          0.20168429	          0.50829685	         -0.01134390	         -0.00006687	         -0.00965380	          0.00066786	         13.86185819	        -97.42450408	         -1.31338644	          0.59775995	          0.50829685	         -0.00946497	          0.00093473	          0.19499402	         -0.01207707	
2.845	         42.56758602	        513.79439368	          6.83384588	          0.21930774	          0.00000000	          0.18703986	          0.00000000	         -2.45525297	          0.00000000	        -38.46448059	        503.71461503	          5.40664745	          0.58204909	          0.00000000	          0.18851211	          0.00000000	          0.22085863	          0.00000000	        -15.07154535	        -97.59830920	          0.77676143	          0.20168779	          0.50908806	         -0.01111043	         -0.00006717	         -0.00961846	          0.00066095	         13.83911417	        -97.42173382	         -1.24430491	          0.59779554	          0.50908806	         -0.00918841	          0.00094497	          0.19548529	         -0.01210994	
